<?xml version="1.0" standalone="no"?>
<!DOCTYPE svg PUBLIC "-//W3C//DTD SVG 20010904//EN"
 "http://www.w3.org/TR/2001/REC-SVG-20010904/DTD/svg10.dtd">
<svg version="1.0" xmlns="http://www.w3.org/2000/svg"
 width="1332.000000pt" height="1435.000000pt" viewBox="0 0 1332.000000 1435.000000"
 preserveAspectRatio="xMidYMid meet">
<metadata>
Created by potrace 1.11, written by Peter Selinger 2001-2013
</metadata>
<g transform="translate(0.000000,1435.000000) scale(0.100000,-0.100000)"
fill="#000000" stroke="none">
<path d="M3237 14345 c-1 -2 -29 -6 -62 -9 -141 -15 -255 -47 -384 -107 -227
-106 -448 -309 -577 -529 -67 -115 -124 -274 -149 -415 -13 -72 -16 -195 -17
-573 -1 -280 -5 -405 -12 -408 -6 -2 -267 -5 -581 -7 -313 -2 -583 -7 -600
-10 -16 -4 -52 -12 -80 -18 -27 -7 -62 -18 -77 -26 -15 -7 -29 -12 -31 -11 -5
6 -93 -37 -157 -76 -69 -42 -163 -117 -220 -177 -152 -158 -235 -318 -277
-534 -10 -52 -10 -10513 0 -10583 4 -30 20 -93 36 -141 114 -345 433 -628 790
-698 20 -4 2625 -9 5790 -10 5250 -3 5762 -2 5840 13 113 21 225 63 322 120
162 94 314 251 402 414 35 63 90 200 82 200 -3 0 0 11 5 26 10 25 14 43 25
124 9 57 10 10445 1 10485 -3 17 -8 46 -11 65 -54 337 -339 667 -675 782 -74
26 -166 46 -239 53 -20 1 -279 3 -576 4 l-540 1 -1 423 c0 232 -3 447 -7 477
-10 82 -16 123 -22 148 -3 12 -7 30 -9 40 -24 107 -99 274 -172 382 -63 94
-180 223 -256 282 -24 18 -45 36 -48 39 -31 37 -227 145 -330 181 -52 18 -67
23 -108 32 -9 2 -35 9 -57 14 -80 22 -167 26 -515 26 -326 0 -443 -4 -510 -20
-14 -3 -38 -8 -55 -10 -38 -7 -166 -50 -225 -76 -254 -114 -507 -359 -632
-614 -34 -67 -82 -201 -92 -254 -3 -14 -7 -34 -10 -46 -22 -99 -25 -173 -25
-631 l-1 -393 -1535 0 -1535 0 -1 413 c-1 508 -1 515 -38 671 -73 304 -298
605 -586 783 -119 74 -292 139 -420 158 -22 4 -51 9 -65 12 -23 5 -767 12
-773 8z m648 -1029 c87 -14 180 -102 201 -191 12 -49 11 -2387 -1 -2430 -18
-66 -70 -127 -140 -163 l-50 -25 -280 -1 c-154 -1 -302 3 -329 7 -87 15 -161
75 -193 157 -17 42 -18 119 -18 1250 l0 1205 23 45 c25 47 79 110 96 110 5 0
18 8 28 17 14 13 45 18 121 22 130 8 485 5 542 -3z m6193 -16 c57 -25 106 -71
135 -125 l22 -40 0 -1220 0 -1220 -22 -41 c-41 -76 -98 -121 -183 -141 -19 -5
-163 -8 -320 -7 -262 1 -289 3 -330 21 -66 29 -106 67 -136 129 l-27 55 0
1202 c0 1179 0 1203 20 1247 24 54 85 117 133 139 47 21 149 26 428 24 211 -2
236 -4 280 -23z m-6757 -4079 c4 0 7 -518 6 -1150 l0 -1149 -1148 0 c-632 0
-1150 3 -1150 7 -5 28 -3 2287 2 2291 6 4 2269 5 2290 1z m3072 0 c4 -1 7
-518 7 -1150 l0 -1149 -1280 0 -1280 0 0 1148 c0 771 3 1149 10 1152 9 3 2520
2 2543 -1z m3065 0 c9 -1 12 -238 12 -1150 l0 -1149 -1279 0 -1279 0 0 1147
c0 630 2 1148 3 1151 2 4 2494 5 2543 1z m2818 0 c9 -1 11 -298 10 -1148 l-1
-1148 -1147 -1 c-632 -1 -1149 1 -1149 5 -3 15 -5 2277 -2 2286 2 7 390 9
1141 8 625 0 1142 -1 1148 -2z m-8949 -4091 l1 -1280 -1152 0 -1151 0 1 1273
c1 699 2 1275 3 1280 0 4 518 7 1150 7 l1148 0 0 -1280z m3073 0 l0 -1280
-1280 0 -1280 0 0 1280 0 1280 1280 0 1280 0 0 -1280z m3070 0 l0 -1280 -1279
0 -1278 0 0 1280 -1 1280 1279 0 1279 0 0 -1280z m2818 0 l0 -1280 -1152 2
-1151 3 0 1270 c-1 699 1 1273 3 1278 2 4 520 7 1151 7 l1149 0 0 -1280z
m-8960 -2941 c0 -632 -3 -1150 -6 -1150 -4 -1 -522 -2 -1152 -3 l-1145 -1 1
1145 c1 630 2 1148 3 1151 0 4 518 7 1150 7 l1148 -1 1 -1148z m3072 -3 l0
-1151 -1278 0 -1277 0 -3 1152 -2 1151 1280 0 1280 0 0 -1152z m3070 4 c0
-909 -3 -1149 -12 -1152 -11 -3 -2500 -3 -2535 1 -8 1 -11 281 -11 1144 0 628
2 1145 4 1148 2 4 577 6 1279 7 l1275 0 0 -1148z m2817 -4 l0 -1151 -1151 0
-1151 0 1 1150 c1 633 2 1151 3 1151 0 1 518 2 1150 2 l1148 0 0 -1152z"/>
</g>
</svg>
